<?xml version="1.0" standalone="no"?>
<!DOCTYPE svg PUBLIC "-//W3C//DTD SVG 20010904//EN"
 "http://www.w3.org/TR/2001/REC-SVG-20010904/DTD/svg10.dtd">
<svg version="1.0" xmlns="http://www.w3.org/2000/svg"
 width="640.000000pt" height="1280.000000pt" viewBox="0 0 640.000000 1280.000000"
 preserveAspectRatio="xMidYMid meet">
<metadata>
Created by potrace 1.15, written by Peter Selinger 2001-2017
</metadata>
<g transform="translate(0.000000,1280.000000) scale(0.100000,-0.100000)"
fill="#000000" stroke="none">
<path d="M3245 12790 c-104 -14 -209 -56 -410 -165 -241 -130 -399 -330 -422
-535 -5 -42 9 -157 26 -210 7 -22 -1 -34 -68 -100 -99 -97 -141 -151 -176
-225 -43 -91 -13 -218 63 -261 20 -12 91 -36 157 -54 66 -17 131 -35 145 -39
31 -9 36 -38 20 -109 -11 -49 -15 -55 -52 -71 -33 -14 -44 -25 -57 -60 -17
-48 -24 -53 -90 -73 -39 -12 -48 -20 -83 -83 -22 -38 -47 -74 -56 -79 -10 -5
-35 -28 -57 -50 -44 -46 -109 -81 -225 -121 -231 -81 -354 -141 -426 -207 -23
-21 -45 -38 -50 -38 -22 0 -167 -136 -245 -229 -76 -91 -149 -205 -149 -231 0
-5 -11 -33 -24 -62 -37 -81 -65 -168 -71 -218 -3 -25 -12 -67 -20 -95 -21 -78
-49 -245 -48 -295 0 -48 39 -146 66 -169 20 -16 23 -99 7 -225 -28 -238 -40
-408 -45 -656 -9 -400 -21 -668 -35 -725 -6 -27 -24 -77 -39 -110 -19 -40 -30
-84 -34 -130 -3 -38 -13 -99 -22 -135 -20 -79 -34 -134 -45 -180 -11 -45 -51
-277 -61 -355 -8 -66 -31 -192 -49 -270 -21 -89 -35 -245 -23 -264 12 -19 92
-68 223 -138 52 -27 144 -82 204 -121 59 -40 119 -75 132 -78 57 -15 15 -22
-96 -17 l-120 6 0 -31 c0 -20 7 -35 18 -41 19 -10 177 -35 292 -46 36 -4 97
-17 135 -30 39 -13 106 -33 150 -45 141 -40 256 -101 334 -178 63 -62 94 -113
77 -129 -3 -4 -63 -11 -133 -16 -100 -7 -133 -13 -152 -28 -19 -15 -40 -19
-107 -19 -78 0 -85 -2 -100 -25 -15 -23 -50 -143 -79 -270 -20 -89 -46 -188
-55 -205 -4 -9 -11 -40 -15 -70 -4 -30 -11 -59 -15 -65 -4 -5 -10 -23 -13 -40
-3 -16 -12 -57 -20 -90 -21 -85 -67 -282 -77 -330 -5 -22 -13 -58 -19 -80 -7
-22 -18 -69 -25 -105 -8 -36 -24 -101 -36 -145 -12 -44 -28 -107 -35 -140 -14
-62 -74 -304 -101 -410 -25 -100 -44 -187 -55 -249 -5 -32 -14 -67 -19 -76 -5
-9 -16 -52 -24 -96 -9 -43 -34 -149 -56 -234 -22 -85 -44 -173 -49 -195 -32
-141 -72 -315 -80 -345 -15 -52 -49 -209 -56 -255 -3 -22 -10 -53 -15 -70 -33
-115 -110 -441 -110 -468 0 -13 -4 -27 -9 -33 -5 -5 -14 -36 -20 -69 -6 -33
-20 -98 -31 -145 -11 -47 -26 -116 -34 -155 -8 -38 -17 -77 -20 -85 -10 -24
35 -102 73 -127 64 -43 118 -23 176 67 18 28 37 71 40 94 4 22 12 49 17 59 5
10 13 39 18 65 4 26 20 97 35 157 15 61 31 128 35 150 5 22 16 69 25 105 22
91 52 225 66 290 6 30 20 84 30 120 10 36 21 88 24 115 3 28 16 87 28 133 25
94 17 91 139 63 46 -11 116 -25 156 -31 43 -7 76 -18 79 -25 2 -8 -2 -74 -11
-147 -8 -73 -20 -182 -26 -243 -6 -60 -18 -173 -26 -249 -9 -76 -13 -150 -9
-163 8 -32 59 -53 129 -53 95 0 106 21 132 245 8 72 19 157 24 190 5 33 13 94
18 135 6 41 16 117 22 169 l13 94 201 -6 c157 -5 539 3 776 17 24 1 25 -2 46
-134 37 -239 66 -442 83 -590 6 -47 13 -98 17 -115 3 -16 10 -61 15 -100 5
-38 16 -104 24 -145 11 -51 18 -143 20 -285 l4 -210 38 -33 c54 -48 101 -70
176 -82 36 -5 72 -12 79 -15 23 -8 234 -33 603 -71 292 -30 402 -37 580 -38
216 0 225 0 505 46 157 26 301 52 320 58 61 18 115 54 113 76 -4 45 -42 131
-76 170 -43 49 -89 64 -199 64 -93 0 -134 12 -174 51 -22 21 -48 34 -81 40
-64 12 -274 118 -393 198 -52 35 -122 82 -155 104 -33 23 -97 72 -143 110 -72
61 -82 73 -82 102 0 19 -4 36 -9 39 -4 3 -14 34 -21 68 -11 61 -43 128 -60
128 -24 0 -19 44 11 96 l32 57 -16 74 c-17 78 -14 95 21 136 21 24 31 22 114
-19 214 -105 438 -179 580 -191 107 -8 122 2 136 97 18 124 -15 179 -146 240
-86 40 -161 78 -256 129 -129 68 -332 335 -379 498 -21 71 -33 213 -18 213 13
0 48 73 53 109 2 20 12 27 48 36 88 23 199 109 580 451 147 131 343 351 571
640 115 145 262 321 388 462 155 174 255 316 316 447 65 141 77 199 73 361 -3
131 -5 143 -34 204 -61 129 -177 226 -464 388 -69 38 -165 95 -215 126 -49 31
-150 86 -222 123 -146 74 -146 75 -114 146 11 23 27 68 36 100 9 32 23 70 31
85 8 15 14 33 14 40 0 6 9 29 20 49 11 21 20 42 20 48 0 6 11 27 25 47 14 20
25 46 25 56 0 11 7 22 15 26 8 3 15 13 15 23 1 32 90 173 122 193 30 18 31 18
115 -12 73 -27 87 -29 108 -18 26 14 45 56 45 102 0 33 -55 147 -111 229 -59
88 -227 252 -346 339 -54 39 -167 73 -220 65 -38 -6 -43 -10 -52 -42 -8 -29
-6 -48 15 -107 l25 -72 -57 -97 c-32 -53 -63 -97 -69 -97 -7 0 -18 13 -24 29
-12 29 -7 66 29 211 7 25 13 54 16 64 8 42 29 93 54 136 15 25 33 65 40 88 9
28 22 47 36 52 54 21 84 103 84 230 0 60 3 72 26 97 14 15 35 45 45 65 12 24
34 45 60 58 33 17 46 34 75 93 19 40 40 79 46 89 9 13 7 25 -12 60 -21 41 -22
49 -11 92 11 44 10 49 -13 76 -13 16 -27 49 -31 72 -4 24 -11 51 -16 60 -13
25 -74 41 -125 33 -41 -6 -44 -5 -43 17 0 35 14 104 38 193 15 56 21 104 20
160 -1 44 1 99 6 121 6 36 5 43 -16 57 -22 16 -22 17 -7 54 9 21 20 54 25 73
l9 35 77 -4 c61 -2 77 0 77 11 0 16 -69 58 -95 58 -12 0 -16 6 -12 18 64 222
69 247 64 330 -10 164 -82 250 -302 358 -71 35 -169 79 -217 98 -145 58 -319
166 -436 271 -45 41 -87 75 -92 75 -5 0 -37 19 -71 42 -51 35 -68 42 -105 40
-46 -2 -49 6 -17 53 16 24 16 63 -1 93 -11 21 -10 27 16 52 23 23 28 37 28 76
0 43 4 50 40 81 77 66 176 219 168 260 -2 10 -22 30 -46 46 -60 41 -64 51 -42
138 10 40 21 90 24 110 6 33 15 42 89 87 228 140 327 275 327 446 0 91 -21
153 -70 209 -87 98 -223 122 -503 86 -43 -6 -84 -12 -92 -15 -8 -4 -37 30 -80
93 -36 54 -87 123 -112 153 -24 30 -61 75 -80 98 -67 82 -114 94 -288 72z
m620 -2369 c3 -6 -2 -14 -11 -19 -11 -6 -15 -16 -11 -26 7 -18 65 -46 95 -46
10 0 196 -109 413 -243 392 -241 394 -242 437 -305 40 -60 42 -68 42 -136 l0
-72 -34 4 c-104 12 -149 -91 -267 -611 -45 -204 -77 -321 -89 -339 -11 -15
-20 -31 -20 -35 -1 -4 -14 -24 -30 -43 -37 -42 -37 -57 -5 -105 l26 -37 -31
-47 c-16 -26 -30 -54 -30 -61 0 -14 -40 -54 -71 -71 -25 -13 -123 -39 -148
-39 -17 0 -19 13 -26 118 -18 307 -71 571 -163 812 -43 113 -58 192 -67 365
-17 291 -80 531 -169 648 -33 44 -33 64 4 118 16 24 30 54 30 67 0 12 5 22 12
22 9 0 9 3 0 12 -13 13 -16 60 -5 71 10 11 111 8 118 -2z m-239 -5269 c33 -30
604 -204 729 -223 95 -14 209 -37 237 -48 13 -5 49 -16 81 -26 l58 -16 -23
-39 c-21 -35 -107 -110 -126 -110 -20 0 -471 -470 -516 -537 -27 -40 -51 -72
-52 -70 -2 1 -5 41 -8 87 -2 47 -7 92 -10 100 -3 8 -10 71 -15 140 -12 152
-36 226 -113 345 -14 22 -37 61 -51 87 -15 25 -43 61 -62 80 -20 18 -53 60
-72 93 -20 33 -46 74 -58 90 -34 47 -37 55 -23 55 8 0 18 -4 24 -8z m-897
-1154 c35 -123 69 -241 76 -263 8 -22 26 -89 41 -150 25 -103 25 -115 15 -195
-7 -47 -15 -156 -19 -242 -7 -147 -13 -180 -28 -165 -8 8 -20 79 -34 197 -6
47 -17 139 -25 205 -9 66 -22 174 -30 240 -15 122 -32 258 -60 465 -18 136
-17 130 -6 130 5 0 36 -100 70 -222z m-1112 150 c-7 -83 -24 -244 -36 -343 -6
-44 -15 -127 -21 -185 -6 -58 -17 -161 -26 -230 -8 -69 -23 -217 -34 -330 -17
-178 -57 -566 -75 -727 l-6 -52 -47 -6 c-26 -4 -90 -15 -144 -26 -53 -10 -99
-19 -103 -19 -11 0 2 95 25 180 11 41 20 85 20 98 0 12 4 30 10 40 5 9 19 60
31 112 32 150 45 204 51 220 4 8 9 26 12 40 16 78 77 328 98 400 5 19 15 62
23 95 15 72 23 103 65 260 18 66 47 181 65 255 18 74 41 168 51 208 11 47 22
72 31 72 12 0 14 -13 10 -62z m704 17 c4 -16 17 -100 28 -185 31 -227 70 -511
87 -625 19 -132 63 -442 75 -530 5 -38 16 -122 25 -185 l16 -115 -32 -96 -33
-96 -331 -7 c-182 -3 -357 -9 -388 -13 l-58 -6 0 64 c0 35 5 82 10 104 5 22
14 83 19 135 6 52 20 169 32 260 28 221 46 373 54 440 3 30 10 78 15 105 5 28
16 120 25 205 9 85 20 171 25 190 5 19 11 78 15 130 6 87 22 217 31 248 3 10
46 12 191 10 l187 -3 7 -30z m210 -1981 l67 -7 7 -51 c4 -28 8 -71 9 -96 l1
-45 -60 -7 c-110 -14 -860 -14 -876 -1 -12 10 -13 27 -5 97 l9 85 41 6 c124
17 684 30 807 19z m-1126 -81 c-2 -16 -7 -45 -10 -65 -3 -21 -10 -40 -16 -43
-5 -4 -60 3 -122 15 -191 36 -221 48 -159 66 71 20 231 51 269 53 41 1 42 0
38 -26z"/>
</g>
</svg>
