<?xml version="1.0" standalone="no"?>
<!DOCTYPE svg PUBLIC "-//W3C//DTD SVG 20010904//EN"
 "http://www.w3.org/TR/2001/REC-SVG-20010904/DTD/svg10.dtd">
<svg version="1.0" xmlns="http://www.w3.org/2000/svg"
 width="1280.000000pt" height="836.000000pt" viewBox="0 0 1280.000000 836.000000"
 preserveAspectRatio="xMidYMid meet">
<metadata>
Created by potrace 1.15, written by Peter Selinger 2001-2017
</metadata>
<g transform="translate(0.000000,836.000000) scale(0.100000,-0.100000)"
fill="#000000" stroke="none">
<path d="M2505 7380 c-273 -52 -550 -185 -723 -345 -73 -67 -122 -155 -122
-217 0 -24 16 -91 35 -148 19 -57 35 -109 35 -116 0 -6 -26 -28 -57 -49 -139
-91 -273 -253 -319 -383 -35 -100 -28 -231 18 -329 54 -116 212 -237 402 -308
53 -20 60 -26 61 -51 1 -19 -9 -43 -30 -69 -18 -22 -51 -67 -74 -100 -22 -33
-66 -91 -96 -130 -30 -38 -62 -91 -70 -116 -14 -43 -28 -70 -104 -213 -17 -33
-31 -73 -31 -93 0 -19 -16 -67 -36 -108 -25 -51 -37 -92 -41 -137 -4 -40 -12
-70 -23 -83 -31 -35 -120 -234 -120 -268 0 -7 -12 -29 -26 -48 -37 -48 -125
-236 -135 -287 -5 -23 -21 -58 -35 -78 -19 -24 -29 -51 -32 -87 -2 -29 -22
-104 -43 -167 -29 -87 -45 -120 -65 -134 -40 -29 -57 -78 -44 -126 8 -29 8
-46 -1 -61 -21 -40 -6 -128 38 -221 49 -104 109 -173 166 -190 23 -7 64 -34
96 -63 79 -72 125 -102 301 -192 196 -99 362 -158 423 -149 l44 7 13 -43 c7
-24 14 -79 15 -123 2 -44 9 -98 18 -120 11 -29 17 -96 21 -234 7 -222 8 -226
88 -269 93 -50 97 -56 104 -152 3 -47 9 -200 14 -340 11 -320 17 -428 36 -610
15 -149 50 -367 65 -408 l9 -22 850 0 850 0 69 105 c121 182 202 350 387 800
31 77 86 201 122 275 80 169 142 315 142 336 0 16 1 16 19 0 18 -16 20 -16 40
13 33 46 51 96 51 144 0 23 8 70 17 102 12 43 17 100 18 196 0 158 5 170 90
224 30 19 81 51 113 72 73 47 169 144 192 196 17 37 17 44 4 77 -9 19 -37 94
-64 165 -27 72 -85 227 -130 345 -284 745 -323 884 -345 1205 l-6 90 86 103
c48 56 90 102 95 102 4 0 41 -31 81 -68 41 -37 110 -98 154 -136 44 -37 110
-96 146 -131 43 -41 78 -65 100 -70 19 -4 41 -15 49 -25 8 -10 43 -29 77 -43
34 -13 109 -52 166 -86 98 -58 109 -62 208 -76 221 -31 261 -18 323 106 20 40
36 80 36 89 0 10 17 39 38 64 39 48 132 197 132 213 0 5 13 17 30 26 37 22
110 164 110 214 0 30 -11 47 -73 112 -135 141 -146 159 -148 237 -2 117 -19
216 -43 254 -23 36 -55 145 -76 260 -6 36 -16 87 -21 113 -5 26 -9 63 -9 82 0
48 -8 64 -42 81 -34 18 -118 92 -118 105 0 4 66 86 146 181 170 200 238 257
348 289 141 40 163 50 195 83 l33 34 42 -44 c45 -46 66 -53 84 -31 9 10 2 23
-31 54 -23 22 -49 43 -59 46 -15 5 -13 14 13 78 62 153 108 189 172 139 14
-11 31 -20 37 -20 7 0 38 21 68 47 54 46 60 45 37 -9 -10 -24 28 -58 66 -58
36 0 89 47 89 80 0 52 -46 83 -89 61 -38 -21 -42 2 -16 89 14 46 25 90 25 98
0 8 -16 49 -35 92 -19 43 -35 90 -35 106 0 43 -13 56 -61 64 -24 4 -71 15
-104 24 -73 20 -132 20 -176 2 -69 -28 -79 -29 -79 -8 0 46 -72 68 -119 36
-31 -22 -54 -79 -42 -103 17 -31 40 -46 53 -33 27 27 26 9 -2 -30 -16 -22 -30
-46 -30 -53 0 -6 14 -24 30 -38 41 -37 42 -35 -27 -110 -9 -9 -33 -22 -52 -27
-20 -5 -49 -18 -65 -28 l-30 -18 -34 38 c-39 44 -42 44 -72 20 -20 -16 -21
-21 -10 -43 7 -13 22 -34 33 -46 18 -21 19 -24 5 -40 -26 -30 -46 -76 -73
-173 -33 -116 -56 -163 -109 -215 -22 -23 -132 -141 -244 -263 l-203 -222 -37
16 c-57 25 -86 28 -102 9 -21 -25 -17 -81 7 -113 l21 -29 -65 -74 c-36 -41
-90 -100 -121 -131 l-56 -57 -22 32 c-13 19 -18 35 -12 38 27 17 -38 99 -79
99 -33 0 -93 -60 -93 -93 0 -34 60 -82 92 -74 14 4 31 -2 50 -18 l28 -24 -33
-22 c-17 -12 -55 -44 -82 -71 l-51 -48 -22 30 c-62 83 -169 194 -302 313 -245
219 -244 219 -430 254 -47 8 -128 28 -180 44 -121 36 -230 59 -283 59 -57 0
-317 44 -343 58 -46 24 -47 37 -11 94 121 188 207 426 207 571 0 121 -66 240
-159 289 -80 42 -165 39 -372 -13 l-163 -41 -17 24 c-10 12 -45 68 -78 123
-87 145 -116 182 -163 206 -59 30 -175 34 -303 9z m3285 -2003 c0 -5 -10 -7
-22 -3 -13 3 -32 6 -43 6 -19 1 -19 1 -2 15 15 10 25 11 43 3 13 -6 24 -16 24
-21z m-155 -57 c-16 -26 73 -107 111 -99 51 10 124 -48 124 -99 0 -56 22 -133
45 -160 l23 -26 -23 -31 c-13 -16 -38 -64 -56 -105 -18 -41 -36 -79 -40 -84
-8 -9 -97 39 -179 96 -60 42 -247 198 -284 237 l-29 30 44 53 c24 30 82 98
128 153 l84 100 29 -27 c16 -15 27 -32 23 -38z m-3593 -1300 c31 -23 49 -45
54 -65 12 -53 67 -189 94 -235 16 -27 30 -67 33 -99 l6 -53 -58 -72 c-74 -89
-133 -181 -174 -269 l-31 -67 -91 6 c-49 3 -112 12 -139 20 -27 8 -60 14 -72
14 -12 0 -32 9 -45 19 l-24 19 26 29 c49 52 62 82 65 147 3 69 28 125 87 198
44 54 63 92 78 154 14 58 126 297 137 292 4 -2 28 -19 54 -38z"/>
</g>
</svg>
